<svg xmlns="http://www.w3.org/2000/svg" style="display: none;">

    <symbol id="icon_home" viewBox="0 0 24 24" fill="none" stroke="currentColor" stroke-width="2" stroke-linecap="round" stroke-linejoin="round" class="feather feather-home">
        <path d="M3 9l9-7 9 7v11a2 2 0 0 1-2 2H5a2 2 0 0 1-2-2z"></path>
        <polyline points="9 22 9 12 15 12 15 22"></polyline>
    </symbol>

    <symbol id="icon_setting_view" viewBox="0 0 24 24" fill="none" stroke="currentColor" stroke-width="2" stroke-linecap="round" stroke-linejoin="round" class="feather feather-disc d-none d-xl-block collapse-toggle-icon primary font-medium-4"><circle cx="12" cy="12" r="10"></circle><circle cx="12" cy="12" r="3"></circle></symbol>

    <symbol id="icon_about_me" viewBox="0 0 24 24" fill="none" stroke="currentColor" stroke-width="2" stroke-linecap="round" stroke-linejoin="round" class="feather feather-info"><circle cx="12" cy="12" r="10"></circle><line x1="12" y1="16" x2="12" y2="12"></line><line x1="12" y1="8" x2="12.01" y2="8"></line></symbol>

    <symbol id="icon_category" viewBox="0 0 24 24" fill="none" stroke="currentColor" stroke-width="2" stroke-linecap="round" stroke-linejoin="round" class="feather feather-image"><rect x="3" y="3" width="18" height="18" rx="2" ry="2"></rect><circle cx="8.5" cy="8.5" r="1.5"></circle><polyline points="21 15 16 10 5 21"></polyline></symbol>

    <symbol id="icon_brush" fill="currentColor" viewBox="0 0 1024 1024">
        <path d="M515.50907 969.885822l53.021597 0 0 54.114178-53.021597 0 0-54.114178Z" fill="currentColor" />
        <path d="M293.840616 680.690811v256.191515a27.628497 27.628497 0 0 0 27.628497 27.628497 27.628497 27.628497 0 0 0 27.515471-25.204724V797.484002a27.628497 27.628497 0 0 1 27.628497-27.628497 27.628497 27.628497 0 0 1 27.628497 27.628497v74.257864a27.628497 27.628497 0 0 0 27.628497 27.628497 27.628497 27.628497 0 0 0 27.628497-27.628497V850.229314a27.628497 27.628497 0 0 1 27.628496-27.628497 27.628497 27.628497 0 0 1 27.628497 27.628497v86.301377a27.628497 27.628497 0 0 0 27.327095 23.132587 27.628497 27.628497 0 0 0 27.628497-27.628497v-106.357154a27.628497 27.628497 0 0 1 27.628497-27.628497 27.628497 27.628497 0 0 1 27.628496 27.628497v94.652718a27.628497 27.628497 0 0 0 27.628497 27.628497 27.628497 27.628497 0 0 0 27.628497-27.628497v-77.698868a27.628497 27.628497 0 0 1 27.628497-27.628497 27.628497 27.628497 0 0 1 27.628497 27.628497v132.4912a27.628497 27.628497 0 0 0 54.641631-5.814542V680.690811z" fill="currentColor" />
        <path d="M297.620697 549.292191l486.261544 0 0 154.480973-486.261544 0 0-154.480973Z" fill="#2d3848" />
        <path d="M771.311275 549.279633a12.558408 12.558408 0 0 1 12.558407 12.558408v129.351598a12.558408 12.558408 0 0 1-12.558407 12.558408H310.166546a12.558408 12.558408 0 0 1-12.558407-12.558408v-129.351598a12.558408 12.558408 0 0 1 12.558407-12.558408h461.144729m0-25.116815H310.166546a37.675223 37.675223 0 0 0-37.675223 37.675223v129.351598a37.675223 37.675223 0 0 0 37.675223 37.675223h461.144729a37.675223 37.675223 0 0 0 37.675223-37.675223v-129.351598a37.675223 37.675223 0 0 0-37.675223-37.675223z" fill="currentColor" />
        <path d="M488.659194 25.141932l105.490624 0 0 274.840751-105.490624 0 0-274.840751Z" fill="currentColor" fill-opacity="0.8" />
        <path d="M771.311275 549.279633h-230.572365v154.468414h230.572365a12.558408 12.558408 0 0 0 12.558407-12.558408v-129.351598a12.558408 12.558408 0 0 0-12.558407-12.558408z" fill="currentColor" fill-opacity="0.8" />
        <path d="M594.149818 288.692675V36.419382a11.302567 11.302567 0 0 0-11.302567-11.302567h-42.108341v274.865868h42.1209a11.302567 11.302567 0 0 0 11.290008-11.290008z" fill="currentColor" />
    </symbol>

    <symbol id="icon_share" viewBox="0 0 24 24" fill="none" stroke="currentColor" stroke-width="2" stroke-linecap="round" stroke-linejoin="round" class="feather feather-share-2"><circle cx="18" cy="5" r="3"></circle><circle cx="6" cy="12" r="3"></circle><circle cx="18" cy="19" r="3"></circle><line x1="8.59" y1="13.51" x2="15.42" y2="17.49"></line><line x1="15.41" y1="6.51" x2="8.59" y2="10.49"></line></symbol>

    <symbol id="icon_support" viewBox="0 0 24 24" fill="none" stroke="currentColor" stroke-width="2" stroke-linecap="round" stroke-linejoin="round" class="feather feather-message-circle"><path d="M21 11.5a8.38 8.38 0 0 1-.9 3.8 8.5 8.5 0 0 1-7.6 4.7 8.38 8.38 0 0 1-3.8-.9L3 21l1.9-5.7a8.38 8.38 0 0 1-.9-3.8 8.5 8.5 0 0 1 4.7-7.6 8.38 8.38 0 0 1 3.8-.9h.5a8.48 8.48 0 0 1 8 8v.5z"></path></symbol>

    <symbol id="icon_blog" viewBox="0 0 682.81335 682.67999">
        <g id="g8" inkscape:groupmode="layer" inkscape:label="ink_ext_XXXXXX" transform="matrix(1.3333333,0,0,-1.3333333,0,682.68)">
            <g id="g10" transform="scale(0.1)"> <path d="M 107.004,3842 C 47.0039,3842 0,3795 0,3735 V 1387 C 0,623 622.996,0 1387,0 c 764,0 1387,623 1387,1387 0,764 -623,1387 -1387,1387 -60,0 -107,-47 -107,-107 v -640 c 0,-60 47,-107 107,-107 294,0 534,-239 534,-534 0,-295 -239,-534 -534,-534 -295,0 -534.004,239 -534.004,534 v 2349 c 0,60 -46.996,107 -106.996,107 z M 2032,4053 c -60,2 -111,-49 -111,-109 v -423 c 0,-60 47,-107 107,-107 v -6 c 741,-49 1332,-640 1381,-1381 h 6 c 0,-60 47,-107 107,-107 h 423 c 60,0 111,51 109,111 -59,1089 -934,1964 -2022,2022 z m 0,1067 c -60,2 -111,-47 -111,-109 v -423 c 0,-60 47,-107 107,-107 v -4 C 3358,4426 4427,3356 4478,2027 h 4 c 0,-60 47,-107 107,-107 h 423 c 62,0 111,51 109,111 -59,1678 -1412,3031 -3089,3089" fill="currentColor" />
            </g>
        </g>
    </symbol>

    <symbol id="icon_close" viewBox="0 0 384 512" fill="currentColor">
        <path d="M342.6 150.6c12.5-12.5 12.5-32.8 0-45.3s-32.8-12.5-45.3 0L192 210.7 86.6 105.4c-12.5-12.5-32.8-12.5-45.3 0s-12.5 32.8 0 45.3L146.7 256 41.4 361.4c-12.5 12.5-12.5 32.8 0 45.3s32.8 12.5 45.3 0L192 301.3 297.4 406.6c12.5 12.5 32.8 12.5 45.3 0s12.5-32.8 0-45.3L237.3 256 342.6 150.6z"/>
    </symbol>

    <symbol id="icon_trash" viewBox="0 0 24 24" fill="none">
        <path d="M21 5.98C17.67 5.65 14.32 5.48 10.98 5.48C9 5.48 7.02 5.58 5.04 5.78L3 5.98" stroke="currentColor" stroke-width="1.5" stroke-linecap="round" stroke-linejoin="round"/>
        <path d="M8.5 4.97L8.72 3.66C8.88 2.71 9 2 10.69 2H13.31C15 2 15.13 2.75 15.28 3.67L15.5 4.97" stroke="currentColor" stroke-width="1.5" stroke-linecap="round" stroke-linejoin="round"/>
        <path d="M18.8499 9.14001L18.1999 19.21C18.0899 20.78 17.9999 22 15.2099 22H8.7899C5.9999 22 5.9099 20.78 5.7999 19.21L5.1499 9.14001" stroke="currentColor" stroke-width="1.5" stroke-linecap="round" stroke-linejoin="round"/>
        <path d="M10.3301 16.5H13.6601" stroke="currentColor" stroke-width="1.5" stroke-linecap="round" stroke-linejoin="round"/>
        <path d="M9.5 12.5H14.5" stroke="currentColor" stroke-width="1.5" stroke-linecap="round" stroke-linejoin="round"/>
    </symbol>

    <symbol id="icon_cart" viewBox="0 0 24 21" fill="none" stroke-width="0.5" stroke="currentColor">
        <path fill-rule="evenodd" clip-rule="evenodd" d="M7.79708 8.9191C7.41835 8.9191 7.11133 8.64932 7.11133 8.31653L7.11133 4.46009C7.11133 1.99744 9.38328 0.00107338 12.1859 0.00107392C14.9885 0.00107355 17.2604 1.99744 17.2604 4.46009L17.2604 8.31653C17.2604 8.64932 16.9534 8.9191 16.5747 8.9191C16.1959 8.9191 15.8889 8.64932 15.8889 8.31653L15.8889 4.46009C15.8889 2.66302 14.231 1.20621 12.1859 1.20621C10.1407 1.20621 8.48282 2.66302 8.48282 4.46009L8.48283 8.31653C8.48283 8.64932 8.17581 8.9191 7.79708 8.9191Z" fill="currentColor"/>
        <path fill-rule="evenodd" clip-rule="evenodd" d="M7.02578 5.6976H17.3451C18.3357 5.69758 19.1507 5.69756 19.7999 5.77987C20.4811 5.86623 21.079 6.05323 21.5745 6.49833C22.0699 6.94343 22.3105 7.50965 22.4552 8.16523C22.5931 8.7901 22.6608 9.58301 22.743 10.5469L23.3591 17.7644C23.4056 18.309 23.4467 18.7902 23.4249 19.1798C23.4014 19.6014 23.3004 20.034 22.9607 20.3945C22.621 20.7549 22.1878 20.8891 21.7594 20.947C21.3636 21.0005 20.869 21.0005 20.3092 21.0005H4.06161C3.50187 21.0005 3.00728 21.0005 2.61146 20.947C2.18308 20.8891 1.74984 20.7549 1.41016 20.3945C1.07047 20.034 0.969485 19.6014 0.945931 19.1798C0.924168 18.7902 0.965281 18.309 1.01181 17.7644L1.62785 10.5469C1.71009 9.58301 1.77775 8.7901 1.91569 8.16523C2.0604 7.50965 2.30092 6.94343 2.79638 6.49833C3.29184 6.05323 3.88976 5.86623 4.57093 5.77987C5.22018 5.69756 6.03513 5.69758 7.02578 5.6976ZM4.76134 7.21152C4.23949 7.27768 3.98124 7.39572 3.79759 7.5607C3.61395 7.72567 3.47202 7.96714 3.36115 8.46939C3.24582 8.99187 3.18471 9.69073 3.09724 10.7155L2.48941 17.8369C2.43764 18.4434 2.40688 18.8234 2.42239 19.1011C2.43641 19.352 2.4842 19.4022 2.49739 19.416L2.49827 19.4169L2.49915 19.4179C2.51218 19.4319 2.55939 19.4825 2.81433 19.517C3.09648 19.5552 3.48697 19.5568 4.11031 19.5568H20.2606C20.8839 19.5568 21.2744 19.5552 21.5565 19.517C21.8115 19.4825 21.8587 19.4319 21.8717 19.4179L21.8726 19.4169L21.8735 19.416C21.8867 19.4022 21.9345 19.352 21.9485 19.1011C21.964 18.8234 21.9332 18.4434 21.8815 17.8369L21.2736 10.7155C21.1862 9.69073 21.125 8.99187 21.0097 8.46939C20.8988 7.96714 20.7569 7.72567 20.5733 7.5607C20.3896 7.39572 20.1314 7.27768 19.6095 7.21152C19.0667 7.14269 18.3482 7.14127 17.295 7.14127H7.07582C6.02262 7.14127 5.30421 7.14269 4.76134 7.21152Z" fill="currentColor"/>
    </symbol>

    <symbol id="icon_money_bill_wave" viewBox="0 0 576 512" fill="currentColor">
        <path d="M0 112.5L0 422.3c0 18 10.1 35 27 41.3c87 32.5 174 10.3 261-11.9c79.8-20.3 159.6-40.7 239.3-18.9c23 6.3 48.7-9.5 48.7-33.4l0-309.9c0-18-10.1-35-27-41.3C462 15.9 375 38.1 288 60.3C208.2 80.6 128.4 100.9 48.7 79.1C25.6 72.8 0 88.6 0 112.5zM288 352c-44.2 0-80-43-80-96s35.8-96 80-96s80 43 80 96s-35.8 96-80 96zM64 352c35.3 0 64 28.7 64 64l-64 0 0-64zm64-208c0 35.3-28.7 64-64 64l0-64 64 0zM512 304l0 64-64 0c0-35.3 28.7-64 64-64zM448 96l64 0 0 64c-35.3 0-64-28.7-64-64z"/>
    </symbol>

    <symbol id="icon_arrow_up" viewBox="0 0 448 512" fill="currentColor">
        <path d="M201.4 137.4c12.5-12.5 32.8-12.5 45.3 0l160 160c12.5 12.5 12.5 32.8 0 45.3s-32.8 12.5-45.3 0L224 205.3 86.6 342.6c-12.5 12.5-32.8 12.5-45.3 0s-12.5-32.8 0-45.3l160-160z"/>
    </symbol>

    <symbol id="icon_user" viewBox="0 0 24 24" xmlns="http://www.w3.org/2000/svg">
        <path d="M12 12.0008C14.7614 12.0008 17 9.76222 17 7.00079C17 4.23937 14.7614 2.00079 12 2.00079C9.23858 2.00079 7 4.23937 7 7.00079C7 9.76222 9.23858 12.0008 12 12.0008Z" fill="currentColor" stroke="currentColor" stroke-width="1.7" stroke-linecap="round" stroke-linejoin="round"/>
        <path d="M20.5901 22.0008C20.5901 18.1308 16.7402 15.0008 12.0002 15.0008C7.26015 15.0008 3.41016 18.1308 3.41016 22.0008" fill="currentColor" stroke="currentColor" stroke-width="1.7" stroke-linecap="round" stroke-linejoin="round"/>
    </symbol>

    <symbol id="icon_clock_bold" viewBox="0 0 512 512" fill="currentColor">
        <path d="M256 0a256 256 0 1 1 0 512A256 256 0 1 1 256 0zM232 120l0 136c0 8 4 15.5 10.7 20l96 64c11 7.4 25.9 4.4 33.3-6.7s4.4-25.9-6.7-33.3L280 243.2 280 120c0-13.3-10.7-24-24-24s-24 10.7-24 24z"/>
    </symbol>

    <symbol id="icon_eye_bold" viewBox="0 0 576 512" fill="currentColor">
        <path d="M288 32c-80.8 0-145.5 36.8-192.6 80.6C48.6 156 17.3 208 2.5 243.7c-3.3 7.9-3.3 16.7 0 24.6C17.3 304 48.6 356 95.4 399.4C142.5 443.2 207.2 480 288 480s145.5-36.8 192.6-80.6c46.8-43.5 78.1-95.4 93-131.1c3.3-7.9 3.3-16.7 0-24.6c-14.9-35.7-46.2-87.7-93-131.1C433.5 68.8 368.8 32 288 32zM144 256a144 144 0 1 1 288 0 144 144 0 1 1 -288 0zm144-64c0 35.3-28.7 64-64 64c-7.1 0-13.9-1.2-20.3-3.3c-5.5-1.8-11.9 1.6-11.7 7.4c.3 6.9 1.3 13.8 3.2 20.7c13.7 51.2 66.4 81.6 117.6 67.9s81.6-66.4 67.9-117.6c-11.1-41.5-47.8-69.4-88.6-71.1c-5.8-.2-9.2 6.1-7.4 11.7c2.1 6.4 3.3 13.2 3.3 20.3z"/>
    </symbol>

    <symbol id="icon_blank_cart" viewBox="0 0 90 105" fill="none">
        <path d="M86.8309 83.4357C86.9628 83.2876 87.0619 83.1134 87.1217 82.9244C87.1815 82.7353 87.2006 82.5358 87.1779 82.3388L82.9591 45.7763C82.9196 45.4335 82.7554 45.1173 82.4978 44.8877C82.2402 44.6581 81.9072 44.5313 81.5622 44.5312H74.531V41.7188C74.531 39.481 73.642 37.3349 72.0597 35.7525C70.4773 34.1702 68.3312 33.2812 66.0935 33.2812C63.8557 33.2812 61.7096 34.1702 60.1272 35.7525C58.5449 37.3349 57.656 39.481 57.656 41.7188H54.8435V37.5C54.8435 34.8893 53.8064 32.3855 51.9603 30.5394C50.1142 28.6934 47.6104 27.6562 44.9997 27.6562C42.389 27.6562 39.8852 28.6934 38.0391 30.5394C36.1931 32.3855 35.156 34.8893 35.156 37.5V41.7188H32.3435C32.3435 39.481 31.4545 37.3349 29.8722 35.7525C28.2898 34.1702 26.1437 33.2812 23.906 33.2812C21.6682 33.2812 19.5221 34.1702 17.9397 35.7525C16.3574 37.3349 15.4685 39.481 15.4685 41.7188V44.5312H8.43721C8.09217 44.5313 7.75917 44.6581 7.50159 44.8877C7.24401 45.1173 7.07983 45.4335 7.04028 45.7763L2.82152 82.3388C2.7988 82.5358 2.81798 82.7353 2.87781 82.9243C2.93764 83.1134 3.03676 83.2876 3.16868 83.4356C3.30059 83.5836 3.46232 83.7021 3.64324 83.7832C3.82416 83.8643 4.02019 83.9062 4.21846 83.9062H21.5579L20.9235 90.8088C20.9056 91.0035 20.9285 91.1998 20.9907 91.3852C21.053 91.5705 21.1532 91.7409 21.285 91.8853C21.4168 92.0298 21.5772 92.1451 21.7561 92.2241C21.935 92.303 22.1284 92.3438 22.3239 92.3438H67.4997C67.6947 92.3437 67.8876 92.3032 68.0662 92.2246C68.2447 92.146 68.4049 92.0312 68.5366 91.8874C68.6684 91.7435 68.7687 91.5739 68.8314 91.3892C68.894 91.2045 68.9176 91.0087 68.9005 90.8144L68.2907 83.9062H85.781C85.9792 83.9063 86.1753 83.8644 86.3563 83.7833C86.5372 83.7022 86.699 83.5837 86.8309 83.4357ZM66.0935 36.0938C67.5848 36.0954 69.0145 36.6886 70.0691 37.7431C71.1236 38.7977 71.7168 40.2274 71.7185 41.7188V44.5312H64.8168L64.6818 43.002C64.651 42.6517 64.4901 42.3256 64.2308 42.0881C63.9715 41.8505 63.6326 41.7188 63.281 41.7188H60.4685C60.4701 40.2274 61.0633 38.7977 62.1178 37.7431C63.1724 36.6886 64.6021 36.0954 66.0935 36.0938ZM37.9685 37.5C37.9685 35.6352 38.7092 33.8468 40.0279 32.5282C41.3465 31.2095 43.1349 30.4688 44.9997 30.4688C46.8645 30.4688 48.6529 31.2095 49.9716 32.5282C51.2902 33.8468 52.031 35.6352 52.031 37.5V41.7188H37.9685V37.5ZM18.281 41.7188C18.281 40.2269 18.8736 38.7962 19.9285 37.7413C20.9834 36.6864 22.4141 36.0938 23.906 36.0938C25.3978 36.0938 26.8285 36.6864 27.8834 37.7413C28.9383 38.7962 29.531 40.2269 29.531 41.7188H26.7185C26.3678 41.7187 26.0297 41.8497 25.7706 42.0861C25.5115 42.3225 25.3501 42.6471 25.318 42.9963L25.1774 44.5312H18.281V41.7188ZM5.79645 81.0938L9.69053 47.3438H15.4685V50.1562C15.4685 50.5292 15.6166 50.8869 15.8803 51.1506C16.1441 51.4143 16.5017 51.5625 16.8747 51.5625C17.2477 51.5625 17.6054 51.4143 17.8691 51.1506C18.1328 50.8869 18.281 50.5292 18.281 50.1562V47.3438H24.9185L21.8164 81.0938H5.79645ZM23.8654 89.5312L28.0017 44.5312H35.156V50.1562C35.156 50.5292 35.3041 50.8869 35.5678 51.1506C35.8316 51.4143 36.1892 51.5625 36.5622 51.5625C36.9352 51.5625 37.2929 51.4143 37.5566 51.1506C37.8203 50.8869 37.9685 50.5292 37.9685 50.1562V44.5312H52.031V50.1562C52.031 50.5292 52.1791 50.8869 52.4428 51.1506C52.7066 51.4143 53.0642 51.5625 53.4372 51.5625C53.8102 51.5625 54.1679 51.4143 54.4316 51.1506C54.6953 50.8869 54.8435 50.5292 54.8435 50.1562V44.5312H61.9934L65.9639 89.5312H23.8654ZM68.0429 81.0938L65.0648 47.3438H71.7185V50.1562C71.7185 50.5292 71.8666 50.8869 72.1303 51.1506C72.3941 51.4143 72.7517 51.5625 73.1247 51.5625C73.4977 51.5625 73.8554 51.4143 74.1191 51.1506C74.3828 50.8869 74.531 50.5292 74.531 50.1562V47.3438H80.3089L84.203 81.0938H68.0429Z" fill="currentColor" />
        <path d="M36.5625 57.1875C37.3392 57.1875 37.9688 56.5579 37.9688 55.7812C37.9688 55.0046 37.3392 54.375 36.5625 54.375C35.7858 54.375 35.1562 55.0046 35.1562 55.7812C35.1562 56.5579 35.7858 57.1875 36.5625 57.1875Z" fill="currentColor"/>
        <path d="M16.875 57.1875C17.6517 57.1875 18.2812 56.5579 18.2812 55.7812C18.2812 55.0046 17.6517 54.375 16.875 54.375C16.0983 54.375 15.4688 55.0046 15.4688 55.7812C15.4688 56.5579 16.0983 57.1875 16.875 57.1875Z" fill="currentColor"/>
        <path d="M53.4375 57.1875C54.2142 57.1875 54.8438 56.5579 54.8438 55.7812C54.8438 55.0046 54.2142 54.375 53.4375 54.375C52.6608 54.375 52.0312 55.0046 52.0312 55.7812C52.0312 56.5579 52.6608 57.1875 53.4375 57.1875Z" fill="currentColor"/>
        <path d="M73.125 57.1875C73.9017 57.1875 74.5312 56.5579 74.5312 55.7812C74.5312 55.0046 73.9017 54.375 73.125 54.375C72.3483 54.375 71.7188 55.0046 71.7188 55.7812C71.7188 56.5579 72.3483 57.1875 73.125 57.1875Z" fill="currentColor"/>
        <path d="M7.40192 26.5L10 22L12.5981 26.5H7.40192Z" stroke="currentColor"/>
        <path d="M32.2422 14.5625C32.579 13.9792 33.421 13.9792 33.7578 14.5625C34.0946 15.1458 33.6736 15.875 33 15.875C32.3264 15.875 31.9054 15.1458 32.2422 14.5625Z" stroke="#DDE1EF" stroke-width="1.25"/>
        <path d="M57.2422 17.5625C57.579 16.9792 58.421 16.9792 58.7578 17.5625C59.0946 18.1458 58.6736 18.875 58 18.875C57.3264 18.875 56.9054 18.1458 57.2422 17.5625Z" stroke="#DDE1EF" stroke-width="1.25"/>
        <path d="M13.2422 4.5625C13.579 3.97917 14.421 3.97917 14.7578 4.5625C15.0946 5.14583 14.6736 5.875 14 5.875C13.3264 5.875 12.9054 5.14583 13.2422 4.5625Z" stroke="#DDE1EF" stroke-width="1.25"/>
        <path d="M71.6597 20.4375C72.4776 19.0208 74.5224 19.0208 75.3403 20.4375C76.1582 21.8542 75.1358 23.625 73.5 23.625C71.8642 23.625 70.8418 21.8542 71.6597 20.4375Z" stroke="currentColor" stroke-width="1.25"/>
        <g clip-path="url(#clip0_1269:1979)">
        <path d="M49.0032 4.15775L48.9709 4.27849L49.0916 4.31084L50.3753 4.65481C50.8421 4.77989 51.1191 5.25968 50.9941 5.72646C50.869 6.19325 50.3892 6.47026 49.9224 6.34518L48.6387 6.00121L48.518 5.96886L48.4856 6.0896L48.1405 7.3775C48.0154 7.84428 47.5356 8.12129 47.0689 7.99622C46.6021 7.87115 46.3251 7.39135 46.4501 6.92457L46.7952 5.63667L46.8276 5.51593L46.7068 5.48357L45.4231 5.1396C44.9564 5.01453 44.6793 4.53473 44.8044 4.06795C44.9295 3.60117 45.4093 3.32416 45.8761 3.44923L47.1598 3.7932L47.2805 3.82556L47.3129 3.70481L47.658 2.41691C47.783 1.95013 48.2628 1.67312 48.7296 1.79819C49.1964 1.92327 49.4734 2.40306 49.3483 2.86985L49.0032 4.15775Z" fill="currentColor" />
        </g>
        <defs>
        <clipPath id="clip0_1269:1979">
        <rect width="8" height="8" fill="currentColor" transform="translate(52.7979 2.07031) rotate(105)"/>
        </clipPath>
        </defs>
    </symbol>

    <symbol id="icon_snowflake" viewBox="0 0 448 512" fill="currentColor">
        <path d="M224 0c17.7 0 32 14.3 32 32l0 30.1 15-15c9.4-9.4 24.6-9.4 33.9 0s9.4 24.6 0 33.9l-49 49 0 70.3 61.4-35.8 17.7-66.1c3.4-12.8 16.6-20.4 29.4-17s20.4 16.6 17 29.4l-5.2 19.3 23.6-13.8c15.3-8.9 34.9-3.7 43.8 11.5s3.8 34.9-11.5 43.8l-25.3 14.8 21.7 5.8c12.8 3.4 20.4 16.6 17 29.4s-16.6 20.4-29.4 17l-67.7-18.1L287.5 256l60.9 35.5 67.7-18.1c12.8-3.4 26 4.2 29.4 17s-4.2 26-17 29.4l-21.7 5.8 25.3 14.8c15.3 8.9 20.4 28.5 11.5 43.8s-28.5 20.4-43.8 11.5l-23.6-13.8 5.2 19.3c3.4 12.8-4.2 26-17 29.4s-26-4.2-29.4-17l-17.7-66.1L256 311.7l0 70.3 49 49c9.4 9.4 9.4 24.6 0 33.9s-24.6 9.4-33.9 0l-15-15 0 30.1c0 17.7-14.3 32-32 32s-32-14.3-32-32l0-30.1-15 15c-9.4 9.4-24.6 9.4-33.9 0s-9.4-24.6 0-33.9l49-49 0-70.3-61.4 35.8-17.7 66.1c-3.4 12.8-16.6 20.4-29.4 17s-20.4-16.6-17-29.4l5.2-19.3L48.1 395.6c-15.3 8.9-34.9 3.7-43.8-11.5s-3.7-34.9 11.5-43.8l25.3-14.8-21.7-5.8c-12.8-3.4-20.4-16.6-17-29.4s16.6-20.4 29.4-17l67.7 18.1L160.5 256 99.6 220.5 31.9 238.6c-12.8 3.4-26-4.2-29.4-17s4.2-26 17-29.4l21.7-5.8L15.9 171.6C.6 162.7-4.5 143.1 4.4 127.9s28.5-20.4 43.8-11.5l23.6 13.8-5.2-19.3c-3.4-12.8 4.2-26 17-29.4s26 4.2 29.4 17l17.7 66.1L192 200.3l0-70.3L143 81c-9.4-9.4-9.4-24.6 0-33.9s24.6-9.4 33.9 0l15 15L192 32c0-17.7 14.3-32 32-32z"/>
    </symbol>

    <symbol id="icon_expand" viewBox="0 0 448 512" fill="currentColor">
        <path d="M32 32C14.3 32 0 46.3 0 64l0 96c0 17.7 14.3 32 32 32s32-14.3 32-32l0-64 64 0c17.7 0 32-14.3 32-32s-14.3-32-32-32L32 32zM64 352c0-17.7-14.3-32-32-32s-32 14.3-32 32l0 96c0 17.7 14.3 32 32 32l96 0c17.7 0 32-14.3 32-32s-14.3-32-32-32l-64 0 0-64zM320 32c-17.7 0-32 14.3-32 32s14.3 32 32 32l64 0 0 64c0 17.7 14.3 32 32 32s32-14.3 32-32l0-96c0-17.7-14.3-32-32-32l-96 0zM448 352c0-17.7-14.3-32-32-32s-32 14.3-32 32l0 64-64 0c-17.7 0-32 14.3-32 32s14.3 32 32 32l96 0c17.7 0 32-14.3 32-32l0-96z"/>
    </symbol>

    <symbol id="icon_like" viewBox="0 0 512 512" fill="currentColor">
        <path d="M313.4 32.9c26 5.2 42.9 30.5 37.7 56.5l-2.3 11.4c-5.3 26.7-15.1 52.1-28.8 75.2l144 0c26.5 0 48 21.5 48 48c0 18.5-10.5 34.6-25.9 42.6C497 275.4 504 288.9 504 304c0 23.4-16.8 42.9-38.9 47.1c4.4 7.3 6.9 15.8 6.9 24.9c0 21.3-13.9 39.4-33.1 45.6c.7 3.3 1.1 6.8 1.1 10.4c0 26.5-21.5 48-48 48l-97.5 0c-19 0-37.5-5.6-53.3-16.1l-38.5-25.7C176 420.4 160 390.4 160 358.3l0-38.3 0-48 0-24.9c0-29.2 13.3-56.7 36-75l7.4-5.9c26.5-21.2 44.6-51 51.2-84.2l2.3-11.4c5.2-26 30.5-42.9 56.5-37.7zM32 192l64 0c17.7 0 32 14.3 32 32l0 224c0 17.7-14.3 32-32 32l-64 0c-17.7 0-32-14.3-32-32L0 224c0-17.7 14.3-32 32-32z" />
    </symbol>

    <symbol id="icon_download" viewBox="0 0 512 512" fill="currentColor">
        <path d="M288 32c0-17.7-14.3-32-32-32s-32 14.3-32 32l0 242.7-73.4-73.4c-12.5-12.5-32.8-12.5-45.3 0s-12.5 32.8 0 45.3l128 128c12.5 12.5 32.8 12.5 45.3 0l128-128c12.5-12.5 12.5-32.8 0-45.3s-32.8-12.5-45.3 0L288 274.7 288 32zM64 352c-35.3 0-64 28.7-64 64l0 32c0 35.3 28.7 64 64 64l384 0c35.3 0 64-28.7 64-64l0-32c0-35.3-28.7-64-64-64l-101.5 0-45.3 45.3c-25 25-65.5 25-90.5 0L165.5 352 64 352zm368 56a24 24 0 1 1 0 48 24 24 0 1 1 0-48z"/>
    </symbol>

    <symbol id="icon_double_arrow_right" viewBox="0 0 512 512" fill="currentColor">
        <path d="M470.6 278.6c12.5-12.5 12.5-32.8 0-45.3l-160-160c-12.5-12.5-32.8-12.5-45.3 0s-12.5 32.8 0 45.3L402.7 256 265.4 393.4c-12.5 12.5-12.5 32.8 0 45.3s32.8 12.5 45.3 0l160-160zm-352 160l160-160c12.5-12.5 12.5-32.8 0-45.3l-160-160c-12.5-12.5-32.8-12.5-45.3 0s-12.5 32.8 0 45.3L210.7 256 73.4 393.4c-12.5 12.5-12.5 32.8 0 45.3s32.8 12.5 45.3 0z"/>
    </symbol>

    <symbol id="icon_headphone" viewBox="0 0 24 24" fill="currentColor">
        <path d="M21,12.424V11A9,9,0,0,0,3,11v1.424A5,5,0,0,0,5,22a2,2,0,0,0,2-2V14a2,2,0,0,0-2-2V11a7,7,0,0,1,14,0v1a2,2,0,0,0-2,2v6a2,2,0,0,0,2,2,5,5,0,0,0,2-9.576Z"/>
    </symbol>

    <symbol id="icon_book_open" viewBox="0 0 24 24" fill="currentColor">
        <path d="M12,24c-.555,0-1.109-.077-1.648-.231l-6.726-1.921c-2.135-.61-3.626-2.587-3.626-4.808V4c0-.552,.448-1,1-1s1,.448,1,1v13.04c0,1.333,.895,2.519,2.176,2.885l6.726,1.921c.719,.205,1.478,.205,2.198,0l6.725-1.921c1.281-.366,2.176-1.552,2.176-2.885V3c0-.552,.448-1,1-1s1,.448,1,1v14.04c0,2.22-1.491,4.197-3.626,4.808l-6.726,1.921c-.54,.154-1.094,.231-1.648,.231ZM18.023,.155c-.728-.269-1.539-.202-2.26,.086l-.877,.35c-1.139,.455-1.887,1.559-1.887,2.786v14.496c-.328,.084-.663,.127-1,.127s-.672-.043-1-.127V3.377c0-1.227-.747-2.331-1.887-2.786l-.878-.351c-.721-.288-1.532-.355-2.26-.085-1.215,.45-1.976,1.583-1.976,2.822V15.691c0,1.339,.888,2.516,2.175,2.884l4.176,1.194c.538,.153,1.093,.23,1.648,.23s1.11-.077,1.648-.23l4.176-1.194c1.288-.368,2.175-1.545,2.175-2.884V2.977c0-1.239-.762-2.373-1.977-2.822Z"/>
    </symbol>

    <symbol id="icon_global" viewBox="0 0 512 512" fill="currentColor">
        <path d="M352 256c0 22.2-1.2 43.6-3.3 64l-185.3 0c-2.2-20.4-3.3-41.8-3.3-64s1.2-43.6 3.3-64l185.3 0c2.2 20.4 3.3 41.8 3.3 64zm28.8-64l123.1 0c5.3 20.5 8.1 41.9 8.1 64s-2.8 43.5-8.1 64l-123.1 0c2.1-20.6 3.2-42 3.2-64s-1.1-43.4-3.2-64zm112.6-32l-116.7 0c-10-63.9-29.8-117.4-55.3-151.6c78.3 20.7 142 77.5 171.9 151.6zm-149.1 0l-176.6 0c6.1-36.4 15.5-68.6 27-94.7c10.5-23.6 22.2-40.7 33.5-51.5C239.4 3.2 248.7 0 256 0s16.6 3.2 27.8 13.8c11.3 10.8 23 27.9 33.5 51.5c11.6 26 20.9 58.2 27 94.7zm-209 0L18.6 160C48.6 85.9 112.2 29.1 190.6 8.4C165.1 42.6 145.3 96.1 135.3 160zM8.1 192l123.1 0c-2.1 20.6-3.2 42-3.2 64s1.1 43.4 3.2 64L8.1 320C2.8 299.5 0 278.1 0 256s2.8-43.5 8.1-64zM194.7 446.6c-11.6-26-20.9-58.2-27-94.6l176.6 0c-6.1 36.4-15.5 68.6-27 94.6c-10.5 23.6-22.2 40.7-33.5 51.5C272.6 508.8 263.3 512 256 512s-16.6-3.2-27.8-13.8c-11.3-10.8-23-27.9-33.5-51.5zM135.3 352c10 63.9 29.8 117.4 55.3 151.6C112.2 482.9 48.6 426.1 18.6 352l116.7 0zm358.1 0c-30 74.1-93.6 130.9-171.9 151.6c25.5-34.2 45.2-87.7 55.3-151.6l116.7 0z"/>
    </symbol>

    <symbol id="icon_bars" viewBox="0 0 448 512" fill="currentColor">
        <path d="M0 96C0 78.3 14.3 64 32 64l384 0c17.7 0 32 14.3 32 32s-14.3 32-32 32L32 128C14.3 128 0 113.7 0 96zM0 256c0-17.7 14.3-32 32-32l384 0c17.7 0 32 14.3 32 32s-14.3 32-32 32L32 288c-17.7 0-32-14.3-32-32zM448 416c0 17.7-14.3 32-32 32L32 448c-17.7 0-32-14.3-32-32s14.3-32 32-32l384 0c17.7 0 32 14.3 32 32z"/>
    </symbol>

    <symbol id="icon_arrow_right" viewBox="0 0 320 512" fill="currentColor">
        <path d="M310.6 233.4c12.5 12.5 12.5 32.8 0 45.3l-192 192c-12.5 12.5-32.8 12.5-45.3 0s-12.5-32.8 0-45.3L242.7 256 73.4 86.6c-12.5-12.5-12.5-32.8 0-45.3s32.8-12.5 45.3 0l192 192z"/>
    </symbol>

    <symbol id="icon_right_from_bracket" viewBox="0 0 512 512" fill="currentColor">
        <path d="M377.9 105.9L500.7 228.7c7.2 7.2 11.3 17.1 11.3 27.3s-4.1 20.1-11.3 27.3L377.9 406.1c-6.4 6.4-15 9.9-24 9.9c-18.7 0-33.9-15.2-33.9-33.9l0-62.1-128 0c-17.7 0-32-14.3-32-32l0-64c0-17.7 14.3-32 32-32l128 0 0-62.1c0-18.7 15.2-33.9 33.9-33.9c9 0 17.6 3.6 24 9.9zM160 96L96 96c-17.7 0-32 14.3-32 32l0 256c0 17.7 14.3 32 32 32l64 0c17.7 0 32 14.3 32 32s-14.3 32-32 32l-64 0c-53 0-96-43-96-96L0 128C0 75 43 32 96 32l64 0c17.7 0 32 14.3 32 32s-14.3 32-32 32z"/>
    </symbol>

    <symbol id="icon_sign_in_alt" viewBox="0 0 24 24" fill="currentColor">
        <path d="M18.9,0H5.1A5.055,5.055,0,0,0,0,5V8A1,1,0,0,0,2,8V5A3.054,3.054,0,0,1,5.1,2H18.9A3.054,3.054,0,0,1,22,5V19a3.054,3.054,0,0,1-3.1,3H5.1A3.054,3.054,0,0,1,2,19V16a1,1,0,0,0-2,0v3a5.055,5.055,0,0,0,5.1,5H18.9A5.055,5.055,0,0,0,24,19V5A5.055,5.055,0,0,0,18.9,0Z"/>
        <path d="M3,12a1,1,0,0,0,1,1H4l13.188-.03-4.323,4.323a1,1,0,1,0,1.414,1.414l4.586-4.586a3,3,0,0,0,0-4.242L14.281,5.293a1,1,0,0,0-1.414,1.414l4.262,4.263L4,11A1,1,0,0,0,3,12Z"/>
    </symbol>

    <symbol id="icon_arrow_down" viewBox="0 0 448 512" fill="currentColor">
        <path d="M201.4 374.6c12.5 12.5 32.8 12.5 45.3 0l160-160c12.5-12.5 12.5-32.8 0-45.3s-32.8-12.5-45.3 0L224 306.7 86.6 169.4c-12.5-12.5-32.8-12.5-45.3 0s-12.5 32.8 0 45.3l160 160z"/>
    </symbol>
    
    <symbol id="icon_search" viewBox="0 0 24 24" fill="currentColor">
        <g id="_01_align_center" data-name="01 align center">
            <path d="M24,22.586l-6.262-6.262a10.016,10.016,0,1,0-1.414,1.414L22.586,24ZM10,18a8,8,0,1,1,8-8A8.009,8.009,0,0,1,10,18Z"/>
        </g>
    </symbol>

    <symbol id="icon_list_menu" viewBox="0 0 512 512" fill="currentColor">
        <path d="M64 144a48 48 0 1 0 0-96 48 48 0 1 0 0 96zM192 64c-17.7 0-32 14.3-32 32s14.3 32 32 32l288 0c17.7 0 32-14.3 32-32s-14.3-32-32-32L192 64zm0 160c-17.7 0-32 14.3-32 32s14.3 32 32 32l288 0c17.7 0 32-14.3 32-32s-14.3-32-32-32l-288 0zm0 160c-17.7 0-32 14.3-32 32s14.3 32 32 32l288 0c17.7 0 32-14.3 32-32s-14.3-32-32-32l-288 0zM64 464a48 48 0 1 0 0-96 48 48 0 1 0 0 96zm48-208a48 48 0 1 0 -96 0 48 48 0 1 0 96 0z" />
    </symbol>

    <symbol id="icon_image" viewBox="0 0 512 512" fill="currentColor">
        <path d="M0 96C0 60.7 28.7 32 64 32l384 0c35.3 0 64 28.7 64 64l0 320c0 35.3-28.7 64-64 64L64 480c-35.3 0-64-28.7-64-64L0 96zM323.8 202.5c-4.5-6.6-11.9-10.5-19.8-10.5s-15.4 3.9-19.8 10.5l-87 127.6L170.7 297c-4.6-5.7-11.5-9-18.7-9s-14.2 3.3-18.7 9l-64 80c-5.8 7.2-6.9 17.1-2.9 25.4s12.4 13.6 21.6 13.6l96 0 32 0 208 0c8.9 0 17.1-4.9 21.2-12.8s3.6-17.4-1.4-24.7l-120-176zM112 192a48 48 0 1 0 0-96 48 48 0 1 0 0 96z"/>
    </symbol>

    <symbol id="icon_heart" viewBox="0 0 512 512" fill="currentColor">
        <path d="M47.6 300.4L228.3 469.1c7.5 7 17.4 10.9 27.7 10.9s20.2-3.9 27.7-10.9L464.4 300.4c30.4-28.3 47.6-68 47.6-109.5v-5.8c0-69.9-50.5-129.5-119.4-141C347 36.5 300.6 51.4 268 84L256 96 244 84c-32.6-32.6-79-47.5-124.6-39.9C50.5 55.6 0 115.2 0 185.1v5.8c0 41.5 17.2 81.2 47.6 109.5z"/>
    </symbol>

    <symbol id="icon_bag_shopping" viewBox="0 0 448 512" fill="currentColor">
        <path d="M160 112c0-35.3 28.7-64 64-64s64 28.7 64 64l0 48-128 0 0-48zm-48 48l-64 0c-26.5 0-48 21.5-48 48L0 416c0 53 43 96 96 96l256 0c53 0 96-43 96-96l0-208c0-26.5-21.5-48-48-48l-64 0 0-48C336 50.1 285.9 0 224 0S112 50.1 112 112l0 48zm24 48a24 24 0 1 1 0 48 24 24 0 1 1 0-48zm152 24a24 24 0 1 1 48 0 24 24 0 1 1 -48 0z"/>
    </symbol>

    <symbol id="icon_gift" viewBox="0 0 512 512" fill="currentColor">
        <path d="M190.5 68.8L225.3 128l-1.3 0-72 0c-22.1 0-40-17.9-40-40s17.9-40 40-40l2.2 0c14.9 0 28.8 7.9 36.3 20.8zM64 88c0 14.4 3.5 28 9.6 40L32 128c-17.7 0-32 14.3-32 32l0 64c0 17.7 14.3 32 32 32l448 0c17.7 0 32-14.3 32-32l0-64c0-17.7-14.3-32-32-32l-41.6 0c6.1-12 9.6-25.6 9.6-40c0-48.6-39.4-88-88-88l-2.2 0c-31.9 0-61.5 16.9-77.7 44.4L256 85.5l-24.1-41C215.7 16.9 186.1 0 154.2 0L152 0C103.4 0 64 39.4 64 88zm336 0c0 22.1-17.9 40-40 40l-72 0-1.3 0 34.8-59.2C329.1 55.9 342.9 48 357.8 48l2.2 0c22.1 0 40 17.9 40 40zM32 288l0 176c0 26.5 21.5 48 48 48l144 0 0-224L32 288zM288 512l144 0c26.5 0 48-21.5 48-48l0-176-192 0 0 224z"/>
    </symbol>

    <symbol id="icon_star" viewBox="0 0 576 512" fill="currentColor">
        <path d="M316.9 18C311.6 7 300.4 0 288.1 0s-23.4 7-28.8 18L195 150.3 51.4 171.5c-12 1.8-22 10.2-25.7 21.7s-.7 24.2 7.9 32.7L137.8 329 113.2 474.7c-2 12 3 24.2 12.9 31.3s23 8 33.8 2.3l128.3-68.5 128.3 68.5c10.8 5.7 23.9 4.9 33.8-2.3s14.9-19.3 12.9-31.3L438.5 329 542.7 225.9c8.6-8.5 11.7-21.2 7.9-32.7s-13.7-19.9-25.7-21.7L381.2 150.3 316.9 18z"/>
    </symbol>

    <symbol id="icon_vomit_2" viewBox="0 0 32 32" fill="currentColor" stroke="none" >
        <g id="AlertTriangle">
            <path d="M15.9989 29.9978C25.3333 29.9978 29.9978 23.7303 29.9978 15.9989C29.9978 8.26751 25.3333 2 15.9989 2C6.66443 2 2 8.26751 2 15.9989C2 23.7303 6.66443 29.9978 15.9989 29.9978Z" fill="#FFB02E"></path>
            <path d="M9.44719 12.1055C8.95321 11.8586 8.35254 12.0588 8.10555 12.5528C7.85856 13.0467 8.05878 13.6474 8.55276 13.8944L10.7639 15L8.55276 16.1055C8.05878 16.3525 7.85856 16.9532 8.10555 17.4472C8.35254 17.9412 8.95321 18.1414 9.44719 17.8944L13.4472 15.8944C13.786 15.725 14 15.3787 14 15C14 14.6212 13.786 14.2749 13.4472 14.1055L9.44719 12.1055Z" fill="#402A32"></path>
            <path d="M22.5528 12.1055C23.0468 11.8586 23.6475 12.0588 23.8945 12.5528C24.1414 13.0467 23.9412 13.6474 23.4472 13.8944L21.2361 15L23.4472 16.1055C23.9412 16.3525 24.1414 16.9532 23.8945 17.4472C23.6475 17.9412 23.0468 18.1414 22.5528 17.8944L18.5528 15.8944C18.214 15.725 18 15.3787 18 15C18 14.6212 18.214 14.2749 18.5528 14.1055L22.5528 12.1055Z" fill="#402A32"></path>
            <path d="M8 23C8 21.3431 9.34315 20 11 20H21C22.6569 20 24 21.3431 24 23V25C24 26.6569 22.6569 28 21 28H11C9.34315 28 8 26.6569 8 25V23Z" fill="#BB1D80"></path>
            <path d="M21.0099 23.16C21.1599 25.81 23.7899 28.03 27.0199 28.03C28.1199 28.03 29 29 29 30H3C3 28.89 3.86994 28.03 4.97994 28.03C8.30994 28.03 11.0099 25.68 11.0099 22.92L11 20H21L21.0099 23.16Z" fill="#00D26A"></path>
            <path d="M7 25.5C7 26.3284 6.32843 27 5.5 27C4.67157 27 4 26.3284 4 25.5C4 24.6716 4.67157 24 5.5 24C6.32843 24 7 24.6716 7 25.5Z" fill="#00D26A"></path>
            <path d="M28.75 26.5C29.1642 26.5 29.5 26.1642 29.5 25.75C29.5 25.3358 29.1642 25 28.75 25C28.3358 25 28 25.3358 28 25.75C28 26.1642 28.3358 26.5 28.75 26.5Z" fill="#00D26A"></path>
            <path d="M28 22.5C28 23.3284 27.3284 24 26.5 24C25.6716 24 25 23.3284 25 22.5C25 21.6716 25.6716 21 26.5 21C27.3284 21 28 21.6716 28 22.5Z" fill="#00D26A"></path>
        </g>
    </symbol>

    <symbol id="icon_vomit_2_unactive" viewBox="0 0 32 32" fill="currentColor" stroke="none">
        <g id="AlertTriangle">
            <path d="M15.9989 29.9978C25.3333 29.9978 29.9978 23.7303 29.9978 15.9989C29.9978 8.26751 25.3333 2 15.9989 2C6.66443 2 2 8.26751 2 15.9989C2 23.7303 6.66443 29.9978 15.9989 29.9978Z" fill="#808080"></path>
            <path d="M9.44719 12.1055C8.95321 11.8586 8.35254 12.0588 8.10555 12.5528C7.85856 13.0467 8.05878 13.6474 8.55276 13.8944L10.7639 15L8.55276 16.1055C8.05878 16.3525 7.85856 16.9532 8.10555 17.4472C8.35254 17.9412 8.95321 18.1414 9.44719 17.8944L13.4472 15.8944C13.786 15.725 14 15.3787 14 15C14 14.6212 13.786 14.2749 13.4472 14.1055L9.44719 12.1055Z" fill="#3a4556"></path>
            <path d="M22.5528 12.1055C23.0468 11.8586 23.6475 12.0588 23.8945 12.5528C24.1414 13.0467 23.9412 13.6474 23.4472 13.8944L21.2361 15L23.4472 16.1055C23.9412 16.3525 24.1414 16.9532 23.8945 17.4472C23.6475 17.9412 23.0468 18.1414 22.5528 17.8944L18.5528 15.8944C18.214 15.725 18 15.3787 18 15C18 14.6212 18.214 14.2749 18.5528 14.1055L22.5528 12.1055Z" fill="#3a4556"></path>
            <path d="M8 23C8 21.3431 9.34315 20 11 20H21C22.6569 20 24 21.3431 24 23V25C24 26.6569 22.6569 28 21 28H11C9.34315 28 8 26.6569 8 25V23Z" fill="#3a4556"></path>
            <path d="M21.0099 23.16C21.1599 25.81 23.7899 28.03 27.0199 28.03C28.1199 28.03 29 29 29 30H3C3 28.89 3.86994 28.03 4.97994 28.03C8.30994 28.03 11.0099 25.68 11.0099 22.92L11 20H21L21.0099 23.16Z" fill="#3a4556"></path>
            <path d="M7 25.5C7 26.3284 6.32843 27 5.5 27C4.67157 27 4 26.3284 4 25.5C4 24.6716 4.67157 24 5.5 24C6.32843 24 7 24.6716 7 25.5Z" fill="#3a4556"></path>
            <path d="M28.75 26.5C29.1642 26.5 29.5 26.1642 29.5 25.75C29.5 25.3358 29.1642 25 28.75 25C28.3358 25 28 25.3358 28 25.75C28 26.1642 28.3358 26.5 28.75 26.5Z" fill="#3a4556"></path>
            <path d="M28 22.5C28 23.3284 27.3284 24 26.5 24C25.6716 24 25 23.3284 25 22.5C25 21.6716 25.6716 21 26.5 21C27.3284 21 28 21.6716 28 22.5Z" fill="#3a4556"></path>
        </g>
    </symbol>

    <symbol id="icon_not_like_2" viewBox="0 0 32 32" fill="currentColor" stroke="none">
        <g id="AlertTriangle">
            <path d="M15.9989 29.9978C25.3333 29.9978 29.9978 23.7303 29.9978 15.9989C29.9978 8.26751 25.3333 2 15.9989 2C6.66443 2 2 8.26751 2 15.9989C2 23.7303 6.66443 29.9978 15.9989 29.9978Z" fill="#FFB02E"></path>
            <path d="M6 15.5C6 15.331 6.00932 15.1642 6.02746 15H10.0313L12.332 15.9227L14.4639 15H14.9725C14.9907 15.1642 15 15.331 15 15.5C15 17.9853 12.9853 20 10.5 20C8.01472 20 6 17.9853 6 15.5Z" fill="white"></path>
            <path d="M17 15.5C17 15.331 17.0093 15.1642 17.0275 15H21.0407L23.2816 15.7124L25.448 15H25.9725C25.9907 15.1642 26 15.331 26 15.5C26 17.9853 23.9853 20 21.5 20C19.0147 20 17 17.9853 17 15.5Z" fill="white"></path>
            <path d="M10 15.25C10 15.1655 10.0046 15.0821 10.0137 15H14.4863C14.4954 15.0821 14.5 15.1655 14.5 15.25C14.5 16.4945 13.4945 17.5 12.25 17.5C11.0055 17.49 10 16.4845 10 15.25Z" fill="#402A32"></path>
            <path d="M21 15.25C21 15.1655 21.0046 15.0821 21.0137 15H25.4863C25.4954 15.0821 25.5 15.1655 25.5 15.25C25.5 16.4945 24.4945 17.5 23.25 17.5C22.0055 17.49 21 16.4845 21 15.25Z" fill="#402A32"></path>
            <path d="M8.06915 9.98761C7.47625 10.5505 7.11769 11.2277 6.97423 11.6581C6.88691 11.9201 6.60375 12.0617 6.34178 11.9743C6.07981 11.887 5.93823 11.6039 6.02555 11.3419C6.21542 10.7723 6.65687 9.94951 7.38064 9.26239C8.1129 8.5672 9.1478 8 10.4999 8C10.776 8 10.9999 8.22386 10.9999 8.5C10.9999 8.77614 10.776 9 10.4999 9C9.45198 9 8.65355 9.4328 8.06915 9.98761Z" fill="#402A32"></path>
            <path d="M23.9309 9.98761C24.5238 10.5505 24.8823 11.2277 25.0258 11.6581C25.1131 11.9201 25.3963 12.0617 25.6582 11.9743C25.9202 11.887 26.0618 11.6039 25.9745 11.3419C25.7846 10.7723 25.3431 9.94951 24.6194 9.26239C23.8871 8.5672 22.8522 8 21.5001 8C21.224 8 21.0001 8.22386 21.0001 8.5C21.0001 8.77614 21.224 9 21.5001 9C22.548 9 23.3465 9.4328 23.9309 9.98761Z" fill="#402A32"></path>
            <path d="M12.8944 25.4472C13.0659 25.1042 13.9954 24 16 24C18.0046 24 18.934 25.1042 19.1055 25.4472C19.3525 25.9412 19.9532 26.1414 20.4472 25.8944C20.9412 25.6474 21.1414 25.0468 20.8944 24.5528C20.3992 23.5625 18.7954 22 16 22C13.2046 22 11.6007 23.5625 11.1055 24.5528C10.8586 25.0468 11.0588 25.6474 11.5528 25.8944C12.0467 26.1414 12.6474 25.9412 12.8944 25.4472Z" fill="#402A32"></path>
        </g>
    </symbol>

    <symbol id="icon_not_like_2_unactive" viewBox="0 0 32 32" fill="currentColor" stroke="none">
        <g id="AlertTriangle">
            <path d="M15.9989 29.9978C25.3333 29.9978 29.9978 23.7303 29.9978 15.9989C29.9978 8.26751 25.3333 2 15.9989 2C6.66443 2 2 8.26751 2 15.9989C2 23.7303 6.66443 29.9978 15.9989 29.9978Z" fill="#808080"></path>
            <path d="M6 15.5C6 15.331 6.00932 15.1642 6.02746 15H10.0313L12.332 15.9227L14.4639 15H14.9725C14.9907 15.1642 15 15.331 15 15.5C15 17.9853 12.9853 20 10.5 20C8.01472 20 6 17.9853 6 15.5Z" fill="white"></path>
            <path d="M17 15.5C17 15.331 17.0093 15.1642 17.0275 15H21.0407L23.2816 15.7124L25.448 15H25.9725C25.9907 15.1642 26 15.331 26 15.5C26 17.9853 23.9853 20 21.5 20C19.0147 20 17 17.9853 17 15.5Z" fill="white"></path>
            <path d="M10 15.25C10 15.1655 10.0046 15.0821 10.0137 15H14.4863C14.4954 15.0821 14.5 15.1655 14.5 15.25C14.5 16.4945 13.4945 17.5 12.25 17.5C11.0055 17.49 10 16.4845 10 15.25Z" fill="#402A32"></path>
            <path d="M21 15.25C21 15.1655 21.0046 15.0821 21.0137 15H25.4863C25.4954 15.0821 25.5 15.1655 25.5 15.25C25.5 16.4945 24.4945 17.5 23.25 17.5C22.0055 17.49 21 16.4845 21 15.25Z" fill="#402A32"></path>
            <path d="M8.06915 9.98761C7.47625 10.5505 7.11769 11.2277 6.97423 11.6581C6.88691 11.9201 6.60375 12.0617 6.34178 11.9743C6.07981 11.887 5.93823 11.6039 6.02555 11.3419C6.21542 10.7723 6.65687 9.94951 7.38064 9.26239C8.1129 8.5672 9.1478 8 10.4999 8C10.776 8 10.9999 8.22386 10.9999 8.5C10.9999 8.77614 10.776 9 10.4999 9C9.45198 9 8.65355 9.4328 8.06915 9.98761Z" fill="#402A32"></path>
            <path d="M23.9309 9.98761C24.5238 10.5505 24.8823 11.2277 25.0258 11.6581C25.1131 11.9201 25.3963 12.0617 25.6582 11.9743C25.9202 11.887 26.0618 11.6039 25.9745 11.3419C25.7846 10.7723 25.3431 9.94951 24.6194 9.26239C23.8871 8.5672 22.8522 8 21.5001 8C21.224 8 21.0001 8.22386 21.0001 8.5C21.0001 8.77614 21.224 9 21.5001 9C22.548 9 23.3465 9.4328 23.9309 9.98761Z" fill="#402A32"></path>
            <path d="M12.8944 25.4472C13.0659 25.1042 13.9954 24 16 24C18.0046 24 18.934 25.1042 19.1055 25.4472C19.3525 25.9412 19.9532 26.1414 20.4472 25.8944C20.9412 25.6474 21.1414 25.0468 20.8944 24.5528C20.3992 23.5625 18.7954 22 16 22C13.2046 22 11.6007 23.5625 11.1055 24.5528C10.8586 25.0468 11.0588 25.6474 11.5528 25.8944C12.0467 26.1414 12.6474 25.9412 12.8944 25.4472Z" fill="#402A32"></path>
        </g>
    </symbol>

    <symbol id="icon_haha_2" viewBox="0 0 32 32" fill="currentColor" stroke="none">
        <g id="AlertTriangle">
            <path d="M15.9989 29.9978C25.3333 29.9978 29.9978 23.7303 29.9978 15.9989C29.9978 8.26751 25.3333 2 15.9989 2C6.66443 2 2 8.26751 2 15.9989C2 23.7303 6.66443 29.9978 15.9989 29.9978Z" fill="#FFB02E"></path>
            <path d="M8.98156 11.1909C9.02964 10.9436 9.13971 10.6405 9.34896 10.4125C9.52829 10.2171 9.84698 10 10.4999 10C11.1417 10 11.4685 10.2216 11.6572 10.4288C11.8753 10.6683 11.9804 10.9737 12.0147 11.1711C12.1092 11.7152 12.6269 12.0797 13.171 11.9853C13.7152 11.8908 14.0797 11.373 13.9852 10.8289C13.9062 10.374 13.6799 9.6794 13.1357 9.08196C12.562 8.45218 11.6955 8 10.4999 8C9.31564 8 8.45269 8.4313 7.87551 9.06013C7.32826 9.65637 7.10696 10.3533 7.01833 10.8091C6.91291 11.3513 7.26694 11.8762 7.80907 11.9816C8.3512 12.087 8.87614 11.733 8.98156 11.1909Z" fill="#402A32"></path>
            <path d="M19.9818 11.1909C20.0299 10.9436 20.14 10.6405 20.3492 10.4125C20.5285 10.2171 20.8472 10 21.5002 10C22.1419 10 22.4687 10.2216 22.6574 10.4288C22.8756 10.6683 22.9807 10.9737 23.0149 11.1711C23.1094 11.7152 23.6271 12.0797 24.1713 11.9853C24.7154 11.8908 25.0799 11.373 24.9854 10.8289C24.9064 10.374 24.6802 9.6794 24.1359 9.08196C23.5623 8.45218 22.6957 8 21.5002 8C20.3159 8 19.4529 8.4313 18.8758 9.06013C18.3285 9.65637 18.1072 10.3533 18.0186 10.8091C17.9132 11.3513 18.2672 11.8762 18.8093 11.9816C19.3514 12.087 19.8764 11.733 19.9818 11.1909Z" fill="#402A32"></path>
            <path d="M16 25C7 25 7 16 7 16H25C25 16 25 25 16 25Z" fill="#BB1D80"></path>
            <path d="M8 16.5V16H24V16.5C24 17.0523 23.5523 17.5 23 17.5H9C8.44772 17.5 8 17.0523 8 16.5Z" fill="white"></path>
        </g>
    </symbol>

    <symbol id="icon_haha_2_unactive" viewBox="0 0 32 32" fill="currentColor" stroke="none">
        <g id="AlertTriangle">
            <path d="M15.9989 29.9978C25.3333 29.9978 29.9978 23.7303 29.9978 15.9989C29.9978 8.26751 25.3333 2 15.9989 2C6.66443 2 2 8.26751 2 15.9989C2 23.7303 6.66443 29.9978 15.9989 29.9978Z" fill="#808080"></path>
            <path d="M8.98156 11.1909C9.02964 10.9436 9.13971 10.6405 9.34896 10.4125C9.52829 10.2171 9.84698 10 10.4999 10C11.1417 10 11.4685 10.2216 11.6572 10.4288C11.8753 10.6683 11.9804 10.9737 12.0147 11.1711C12.1092 11.7152 12.6269 12.0797 13.171 11.9853C13.7152 11.8908 14.0797 11.373 13.9852 10.8289C13.9062 10.374 13.6799 9.6794 13.1357 9.08196C12.562 8.45218 11.6955 8 10.4999 8C9.31564 8 8.45269 8.4313 7.87551 9.06013C7.32826 9.65637 7.10696 10.3533 7.01833 10.8091C6.91291 11.3513 7.26694 11.8762 7.80907 11.9816C8.3512 12.087 8.87614 11.733 8.98156 11.1909Z" fill="#402A32"></path>
            <path d="M19.9818 11.1909C20.0299 10.9436 20.14 10.6405 20.3492 10.4125C20.5285 10.2171 20.8472 10 21.5002 10C22.1419 10 22.4687 10.2216 22.6574 10.4288C22.8756 10.6683 22.9807 10.9737 23.0149 11.1711C23.1094 11.7152 23.6271 12.0797 24.1713 11.9853C24.7154 11.8908 25.0799 11.373 24.9854 10.8289C24.9064 10.374 24.6802 9.6794 24.1359 9.08196C23.5623 8.45218 22.6957 8 21.5002 8C20.3159 8 19.4529 8.4313 18.8758 9.06013C18.3285 9.65637 18.1072 10.3533 18.0186 10.8091C17.9132 11.3513 18.2672 11.8762 18.8093 11.9816C19.3514 12.087 19.8764 11.733 19.9818 11.1909Z" fill="#402A32"></path>
            <path d="M16 25C7 25 7 16 7 16H25C25 16 25 25 16 25Z" fill="#3a4556"></path>
            <path d="M8 16.5V16H24V16.5C24 17.0523 23.5523 17.5 23 17.5H9C8.44772 17.5 8 17.0523 8 16.5Z" fill="white"></path>
        </g>
    </symbol>

    <symbol id="icon_heart_2" viewBox="0 0 32 32" fill="currentColor" stroke="none">
        <g id="AlertTriangle">
            <path d="M15.9989 29.9978C25.3333 29.9978 29.9978 23.7303 29.9978 15.9989C29.9978 8.26751 25.3333 2 15.9989 2C6.66443 2 2 8.26751 2 15.9989C2 23.7303 6.66443 29.9978 15.9989 29.9978Z" fill="#FFB02E"></path>
            <path d="M16 25C7 25 7 16 7 16H25C25 16 25 25 16 25Z" fill="#BB1D80"></path>
            <path d="M8 16.5V16H24V16.5C24 17.0523 23.5523 17.5 23 17.5H9C8.44772 17.5 8 17.0523 8 16.5Z" fill="white"></path>
            <path d="M3.18104 9.75037C5.19703 12.0771 7.8791 13.096 9.25386 13.4894C9.81699 13.6506 10.4079 13.4889 10.8249 13.0776C12.0184 11.9005 14.4238 9.19933 14.938 6.11531C15.656 1.80872 10.256 0.495856 8.07985 4.04542C2.98933 1.65437 0.296489 6.42127 3.18104 9.75037Z" fill="#F70A8D"></path>
            <path d="M28.8172 9.75198C26.8022 12.0775 24.1215 13.0961 22.7473 13.4894C22.1841 13.6506 21.5932 13.4889 21.1762 13.0776C19.9831 11.9008 17.579 9.20094 17.0651 6.11839C16.3474 1.81356 21.7452 0.50123 23.9204 4.04935C29.0089 1.65928 31.7006 6.42423 28.8172 9.75198Z" fill="#F70A8D"></path>
        </g>
    </symbol>

    <symbol id="icon_heart_2_unactive" viewBox="0 0 32 32" fill="currentColor" stroke="none">
        <g id="AlertTriangle">
            <path d="M15.9989 29.9978C25.3333 29.9978 29.9978 23.7303 29.9978 15.9989C29.9978 8.26751 25.3333 2 15.9989 2C6.66443 2 2 8.26751 2 15.9989C2 23.7303 6.66443 29.9978 15.9989 29.9978Z" fill="#808080"></path>
            <path d="M16 25C7 25 7 16 7 16H25C25 16 25 25 16 25Z" fill="#3a4556"></path>
            <path d="M8 16.5V16H24V16.5C24 17.0523 23.5523 17.5 23 17.5H9C8.44772 17.5 8 17.0523 8 16.5Z" fill="white"></path>
            <path d="M3.18104 9.75037C5.19703 12.0771 7.8791 13.096 9.25386 13.4894C9.81699 13.6506 10.4079 13.4889 10.8249 13.0776C12.0184 11.9005 14.4238 9.19933 14.938 6.11531C15.656 1.80872 10.256 0.495856 8.07985 4.04542C2.98933 1.65437 0.296489 6.42127 3.18104 9.75037Z" fill="#3a4556"></path>
            <path d="M28.8172 9.75198C26.8022 12.0775 24.1215 13.0961 22.7473 13.4894C22.1841 13.6506 21.5932 13.4889 21.1762 13.0776C19.9831 11.9008 17.579 9.20094 17.0651 6.11839C16.3474 1.81356 21.7452 0.50123 23.9204 4.04935C29.0089 1.65928 31.7006 6.42423 28.8172 9.75198Z" fill="#3a4556"></path>
        </g>
    </symbol>

    <symbol id="icon_view_mode_dark" viewBox="0 0 50 50" fill="currentColor">
        <path d="M 4 6 C 3.448 6 3 6.448 3 7 L 3 43 C 3 43.552 3.448 44 4 44 L 16 44 L 16 6 L 4 6 z M 18 6 L 18 24 L 47 24 L 47 7 C 47 6.448 46.552 6 46 6 L 18 6 z M 18 26 L 18 44 L 32 44 L 32 26 L 18 26 z M 34 26 L 34 44 L 46 44 C 46.552 44 47 43.552 47 43 L 47 26 L 34 26 z"/>
    </symbol>

    <symbol id="icon_view_mode_gray" viewBox="0 0 50 50" fill="currentColor">
        <path d="M 4 6 C 3.448 6 3 6.448 3 7 L 3 43 C 3 43.552 3.448 44 4 44 L 16 44 L 16 6 L 4 6 z M 18 6 L 18 24 L 47 24 L 47 7 C 47 6.448 46.552 6 46 6 L 18 6 z M 18 26 L 18 44 L 32 44 L 32 26 L 18 26 z M 34 26 L 34 44 L 46 44 C 46.552 44 47 43.552 47 43 L 47 26 L 34 26 z"/>
    </symbol>

    <symbol id="icon_view_mode_light" viewBox="0 0 50 50" fill="currentColor">
        <path style="line-height:normal;text-indent:0;text-align:start;text-decoration-line:none;text-decoration-style:solid;text-decoration-color:#000;text-transform:none;block-progression:tb;isolation:auto;mix-blend-mode:normal" d="M 17.984375 5.9863281 A 1.0001 1.0001 0 0 0 17.839844 6 L 4 6 A 1.0001 1.0001 0 0 0 3 7 L 3 43 A 1.0001 1.0001 0 0 0 4 44 L 17.832031 44 A 1.0001 1.0001 0 0 0 18.158203 44 L 31.832031 44 A 1.0001 1.0001 0 0 0 32.158203 44 L 46 44 A 1.0001 1.0001 0 0 0 47 43 L 47 25.167969 A 1.0001 1.0001 0 0 0 47 24.841797 L 47 7 A 1.0001 1.0001 0 0 0 46 6 L 18.154297 6 A 1.0001 1.0001 0 0 0 17.984375 5.9863281 z M 5 8 L 17 8 L 17 24.832031 A 1.0001 1.0001 0 0 0 17 25.158203 L 17 42 L 5 42 L 5 8 z M 19 8 L 45 8 L 45 24 L 32.154297 24 A 1.0001 1.0001 0 0 0 31.984375 23.986328 A 1.0001 1.0001 0 0 0 31.839844 24 L 19 24 L 19 8 z M 19 26 L 31 26 L 31 42 L 19 42 L 19 26 z M 33 26 L 45 26 L 45 42 L 33 42 L 33 26 z" font-weight="400" font-family="sans-serif" white-space="normal" overflow="visible" stroke="currentColor" stroke-width="1.5px" />
    </symbol>


</svg>